<svg id="svg" version="1.1" xmlns="http://www.w3.org/2000/svg" xmlns:xlink="http://www.w3.org/1999/xlink" width="400" height="400" viewBox="0, 0, 400,400"><g id="svgg"><path id="path0" d="M69.800 0.289 C 69.140 0.384,68.429 0.628,68.220 0.831 C 68.011 1.034,67.426 1.200,66.920 1.200 C 66.414 1.200,66.000 1.380,66.000 1.600 C 66.000 1.820,65.640 2.000,65.200 2.000 C 64.760 2.000,64.400 2.180,64.400 2.400 C 64.400 2.620,64.040 2.800,63.600 2.800 C 63.160 2.800,62.800 2.980,62.800 3.200 C 62.800 3.420,62.440 3.600,62.000 3.600 C 61.560 3.600,61.200 3.780,61.200 4.000 C 61.200 4.220,61.016 4.400,60.791 4.400 C 60.567 4.400,59.405 5.345,58.210 6.500 C 57.016 7.655,55.318 9.230,54.438 10.000 C 53.557 10.770,52.829 11.591,52.818 11.825 C 52.808 12.058,52.440 12.636,52.000 13.108 C 51.560 13.580,51.200 14.244,51.200 14.583 C 51.200 14.922,51.020 15.200,50.800 15.200 C 50.580 15.200,50.400 15.560,50.400 16.000 C 50.400 16.440,50.220 16.800,50.000 16.800 C 49.780 16.800,49.600 17.160,49.600 17.600 C 49.600 18.040,49.420 18.400,49.200 18.400 C 48.980 18.400,48.800 18.940,48.800 19.600 C 48.800 20.260,48.620 20.800,48.400 20.800 C 48.180 20.800,48.000 21.329,48.000 21.976 C 48.000 22.623,47.820 23.264,47.600 23.400 C 47.045 23.743,47.045 353.857,47.600 354.200 C 47.820 354.336,48.000 355.067,48.000 355.824 C 48.000 356.581,48.180 357.200,48.400 357.200 C 48.620 357.200,48.800 357.560,48.800 358.000 C 48.800 358.440,48.980 358.800,49.200 358.800 C 49.420 358.800,49.600 359.143,49.600 359.562 C 49.600 360.469,51.208 363.600,51.674 363.600 C 51.853 363.600,52.000 363.894,52.000 364.253 C 52.000 364.612,52.324 365.197,52.719 365.553 C 53.114 365.909,53.873 366.830,54.406 367.600 C 54.938 368.370,55.564 369.180,55.796 369.400 C 56.880 370.425,60.263 373.083,60.800 373.332 C 61.130 373.484,61.940 373.954,62.600 374.375 C 63.260 374.797,64.115 375.155,64.500 375.171 C 64.885 375.187,65.200 375.380,65.200 375.600 C 65.200 375.820,65.740 376.000,66.400 376.000 C 67.060 376.000,67.600 376.180,67.600 376.400 C 67.600 376.620,68.140 376.800,68.800 376.800 C 69.460 376.800,70.000 376.980,70.000 377.200 C 70.000 377.420,70.900 377.600,72.000 377.600 C 73.100 377.600,74.000 377.780,74.000 378.000 C 74.000 378.264,85.933 378.400,109.000 378.400 L 144.000 378.400 144.000 389.256 L 144.000 400.112 146.294 399.875 C 147.555 399.745,148.650 399.450,148.727 399.219 C 148.804 398.989,149.212 398.800,149.633 398.800 C 150.055 398.800,150.400 398.620,150.400 398.400 C 150.400 398.180,150.760 398.000,151.200 398.000 C 151.640 398.000,152.000 397.820,152.000 397.600 C 152.000 397.380,152.360 397.200,152.800 397.200 C 153.240 397.200,153.600 397.020,153.600 396.800 C 153.600 396.580,153.960 396.400,154.400 396.400 C 154.840 396.400,155.200 396.220,155.200 396.000 C 155.200 395.780,155.560 395.600,156.000 395.600 C 156.440 395.600,156.800 395.420,156.800 395.200 C 156.800 394.980,157.070 394.800,157.400 394.800 C 157.730 394.800,158.000 394.620,158.000 394.400 C 158.000 394.180,158.360 394.000,158.800 394.000 C 159.240 394.000,159.600 393.820,159.600 393.600 C 159.600 393.380,159.960 393.200,160.400 393.200 C 160.840 393.200,161.200 393.020,161.200 392.800 C 161.200 392.580,161.560 392.400,162.000 392.400 C 162.440 392.400,162.800 392.220,162.800 392.000 C 162.800 391.780,163.115 391.599,163.500 391.598 C 163.885 391.597,165.086 391.147,166.168 390.598 C 167.250 390.049,168.375 389.600,168.668 389.600 C 168.961 389.600,169.200 389.420,169.200 389.200 C 169.200 388.980,169.560 388.800,170.000 388.800 C 170.440 388.800,170.800 388.620,170.800 388.400 C 170.800 388.180,171.160 388.000,171.600 388.000 C 172.040 388.000,172.400 387.854,172.400 387.675 C 172.400 387.496,173.030 387.102,173.800 386.800 C 174.570 386.498,175.200 386.122,175.200 385.964 C 175.200 385.807,177.791 387.010,180.958 388.639 C 184.124 390.267,187.004 391.600,187.358 391.600 C 187.711 391.600,188.000 391.780,188.000 392.000 C 188.000 392.220,188.360 392.400,188.800 392.400 C 189.240 392.400,189.600 392.580,189.600 392.800 C 189.600 393.020,189.960 393.200,190.400 393.200 C 190.840 393.200,191.200 393.380,191.200 393.600 C 191.200 393.820,191.560 394.000,192.000 394.000 C 192.440 394.000,192.800 394.180,192.800 394.400 C 192.800 394.620,193.043 394.800,193.339 394.800 C 193.636 394.800,196.176 395.970,198.985 397.400 C 202.290 399.083,204.569 400.000,205.445 400.000 L 206.800 400.000 206.800 389.200 L 206.800 378.400 270.000 378.400 C 311.867 378.400,333.200 378.265,333.200 378.000 C 333.200 377.780,334.100 377.600,335.200 377.600 C 336.300 377.600,337.200 377.420,337.200 377.200 C 337.200 376.980,337.524 376.800,337.920 376.800 C 338.814 376.800,340.793 375.906,340.797 375.500 C 340.799 375.335,341.072 375.200,341.404 375.200 C 342.738 375.200,347.998 370.884,348.000 369.788 C 348.000 369.562,348.360 369.117,348.800 368.800 C 349.240 368.483,349.600 367.980,349.600 367.683 C 349.600 367.386,349.879 366.864,350.220 366.523 C 350.560 366.182,350.943 365.385,351.070 364.752 C 351.196 364.118,351.457 363.600,351.650 363.600 C 351.842 363.600,352.000 363.060,352.000 362.400 C 352.000 361.740,352.180 361.200,352.400 361.200 C 352.666 361.200,352.800 316.933,352.800 229.200 L 352.800 97.200 350.049 97.200 C 348.127 97.200,347.152 97.376,346.814 97.783 C 346.492 98.171,345.369 98.406,343.465 98.483 L 340.600 98.600 340.400 164.102 L 340.200 229.605 311.394 258.402 L 282.588 287.200 265.948 287.200 L 249.308 287.200 249.019 292.645 C 248.849 295.855,248.882 298.242,249.099 298.459 C 249.321 298.681,266.443 298.779,292.034 298.707 C 335.683 298.583,335.180 298.600,338.095 297.146 C 340.065 296.164,340.000 295.610,340.000 313.351 C 340.000 331.673,340.029 331.437,337.379 334.370 C 336.608 335.224,335.173 336.301,334.190 336.763 L 332.403 337.602 269.302 337.501 L 206.200 337.400 206.093 327.097 L 205.986 316.795 175.693 316.897 L 145.400 317.000 145.293 327.300 L 145.186 337.600 119.207 337.600 C 93.932 337.600,93.217 337.579,92.814 336.826 C 92.053 335.404,92.262 298.539,93.033 298.243 C 93.381 298.109,125.601 298.000,164.633 298.000 L 235.600 298.000 235.600 296.261 C 235.600 295.305,235.717 292.876,235.860 290.863 L 236.120 287.202 172.360 287.101 L 108.600 287.000 108.600 149.600 L 108.600 12.200 195.598 12.099 L 282.596 11.998 311.490 40.890 L 340.384 69.782 340.492 77.591 L 340.600 85.400 343.600 85.698 C 345.250 85.863,347.995 86.107,349.700 86.241 L 352.800 86.485 352.800 51.466 C 352.800 28.552,352.662 16.362,352.400 16.200 C 352.180 16.064,352.000 15.423,352.000 14.776 C 352.000 14.129,351.820 13.600,351.600 13.600 C 351.380 13.600,351.200 13.240,351.200 12.800 C 351.200 12.360,351.020 12.000,350.800 12.000 C 350.580 12.000,350.400 11.640,350.400 11.200 C 350.400 10.760,350.220 10.400,350.000 10.400 C 349.780 10.400,349.600 10.202,349.600 9.960 C 349.600 9.719,349.105 9.038,348.500 8.448 C 347.895 7.858,347.208 7.033,346.973 6.615 C 346.739 6.196,346.204 5.661,345.785 5.427 C 345.367 5.192,344.542 4.505,343.952 3.900 C 343.362 3.295,342.591 2.800,342.240 2.800 C 341.888 2.800,341.600 2.620,341.600 2.400 C 341.600 2.180,341.330 2.000,341.000 2.000 C 340.670 2.000,340.400 1.820,340.400 1.600 C 340.400 1.380,340.055 1.200,339.633 1.200 C 339.212 1.200,338.792 0.975,338.700 0.700 C 338.539 0.218,73.116 -0.188,69.800 0.289 M96.600 149.400 L 96.600 286.600 85.600 286.839 C 72.051 287.134,70.558 287.413,63.826 290.908 C 61.997 291.857,60.298 292.566,60.051 292.484 C 59.450 292.283,59.401 29.557,60.002 26.391 C 61.179 20.186,67.213 13.914,73.418 12.448 C 74.288 12.242,79.860 12.102,85.800 12.137 L 96.600 12.200 96.600 149.400 M334.238 13.476 C 339.383 16.230,339.600 17.140,339.600 35.947 L 339.600 51.797 320.200 32.400 C 309.530 21.732,300.800 12.856,300.800 12.677 C 300.800 11.805,332.532 12.564,334.238 13.476 M338.770 280.575 C 336.203 286.036,335.643 286.179,316.400 286.310 L 300.200 286.421 319.800 266.822 L 339.400 247.224 339.505 263.007 C 339.606 278.316,339.584 278.843,338.770 280.575 M80.340 298.928 C 80.641 299.291,80.813 305.698,80.889 319.428 L 81.000 339.400 81.980 341.400 C 83.407 344.310,86.547 347.285,89.412 348.438 L 91.800 349.400 118.600 349.600 L 145.400 349.800 145.400 357.800 L 145.400 365.800 110.828 365.902 L 76.256 366.004 72.829 364.959 C 67.286 363.268,64.113 360.542,61.366 355.108 L 59.600 351.616 59.606 332.508 C 59.612 312.121,59.594 312.331,61.648 308.306 C 64.660 302.402,70.876 298.620,77.851 298.450 C 79.117 298.419,80.070 298.602,80.340 298.928 M193.903 354.177 C 193.960 368.024,193.853 379.507,193.665 379.695 C 193.477 379.883,189.343 378.053,184.456 375.619 L 175.588 371.202 166.894 375.543 C 162.112 377.931,157.975 379.805,157.700 379.709 C 156.968 379.452,156.968 329.361,157.700 329.063 C 157.975 328.951,166.210 328.891,176.000 328.929 L 193.800 329.000 193.903 354.177 M340.400 352.856 C 340.400 359.904,338.370 363.681,333.728 365.270 C 331.642 365.984,206.999 366.263,206.147 365.556 C 205.275 364.833,205.355 350.179,206.233 349.843 C 206.581 349.709,234.796 349.600,268.933 349.600 C 334.059 349.600,332.948 349.627,337.800 347.915 C 340.362 347.010,340.400 347.082,340.400 352.856 " stroke="none" fill="#050507" fill-rule="evenodd"></path><path id="path1" d="M320.266 31.900 L 339.400 51.000 339.509 36.000 C 339.579 26.398,339.471 20.676,339.209 20.100 C 338.984 19.605,338.575 18.706,338.300 18.103 C 337.643 16.660,335.694 14.737,334.197 14.053 C 333.539 13.753,332.687 13.348,332.305 13.153 C 331.923 12.959,324.753 12.800,316.371 12.800 L 301.132 12.800 320.266 31.900 M320.484 266.916 C 310.080 277.321,301.695 285.962,301.851 286.117 C 302.301 286.567,324.466 286.444,328.732 285.968 C 334.099 285.369,336.824 283.863,338.300 280.679 C 338.575 280.085,338.984 279.195,339.209 278.700 C 339.471 278.124,339.579 272.434,339.509 262.898 L 339.400 247.996 320.484 266.916 M237.478 293.856 C 237.325 294.008,237.200 295.237,237.200 296.587 C 237.200 297.961,236.989 299.251,236.720 299.520 C 236.350 299.890,219.769 300.000,164.520 300.000 L 92.800 300.000 92.800 311.936 C 92.800 318.501,92.918 326.871,93.063 330.536 L 93.326 337.200 119.056 337.200 L 144.786 337.200 144.893 326.900 L 145.000 316.600 175.700 316.498 L 206.400 316.395 206.400 326.798 L 206.400 337.200 269.376 337.200 C 310.929 337.200,332.437 337.064,332.600 336.800 C 332.736 336.580,333.208 336.400,333.650 336.400 C 334.693 336.400,338.800 332.293,338.800 331.250 C 338.800 330.808,338.980 330.336,339.200 330.200 C 339.728 329.874,339.751 297.200,339.224 297.200 C 339.017 297.200,338.749 297.359,338.630 297.552 C 338.510 297.746,337.914 298.023,337.306 298.168 C 332.246 299.373,331.078 299.398,290.000 299.200 L 248.600 299.000 248.400 296.400 L 248.200 293.800 242.978 293.689 C 240.105 293.628,237.630 293.703,237.478 293.856 " stroke="none" fill="#f6e6e2" fill-rule="evenodd"></path><path id="path2" d="M73.600 13.200 C 73.600 13.420,73.276 13.600,72.880 13.600 C 71.986 13.600,70.007 14.494,70.003 14.900 C 70.001 15.065,69.710 15.200,69.355 15.200 C 68.514 15.200,62.800 20.914,62.800 21.755 C 62.800 22.110,62.665 22.401,62.500 22.403 C 62.094 22.407,61.200 24.386,61.200 25.280 C 61.200 25.676,61.020 26.000,60.800 26.000 C 60.534 26.000,60.411 70.612,60.432 159.100 C 60.449 232.305,60.554 291.975,60.665 291.700 C 60.776 291.425,61.122 291.200,61.433 291.200 C 61.745 291.200,62.000 291.020,62.000 290.800 C 62.000 290.580,62.360 290.400,62.800 290.400 C 63.240 290.400,63.600 290.220,63.600 290.000 C 63.600 289.780,63.960 289.600,64.400 289.600 C 64.840 289.600,65.200 289.420,65.200 289.200 C 65.200 288.980,65.560 288.800,66.000 288.800 C 66.440 288.800,66.800 288.620,66.800 288.400 C 66.800 288.180,67.340 288.000,68.000 288.000 C 68.660 288.000,69.200 287.820,69.200 287.600 C 69.200 287.380,69.920 287.200,70.800 287.200 C 71.680 287.200,72.400 287.020,72.400 286.800 C 72.400 286.543,76.533 286.400,84.000 286.400 L 95.600 286.400 95.600 149.600 L 95.600 12.800 84.600 12.800 C 77.533 12.800,73.600 12.943,73.600 13.200 M108.800 149.600 L 108.800 286.400 172.557 286.400 C 230.730 286.400,236.336 286.456,236.561 287.042 C 236.696 287.396,236.688 290.186,236.542 293.242 L 236.277 298.800 164.762 298.800 C 117.388 298.800,93.164 298.935,92.999 299.201 C 92.834 299.469,116.739 299.569,164.876 299.501 L 237.000 299.400 237.200 296.600 L 237.400 293.800 242.800 293.690 L 248.200 293.580 248.200 290.090 L 248.200 286.600 265.078 286.496 L 281.957 286.391 286.635 281.896 C 289.207 279.423,292.592 276.059,294.156 274.420 C 295.720 272.782,299.585 268.912,302.744 265.820 C 305.904 262.729,309.774 258.859,311.344 257.219 C 312.915 255.579,316.609 251.889,319.554 249.019 C 322.498 246.149,326.008 242.645,327.354 241.232 C 328.699 239.820,332.005 236.459,334.700 233.764 L 339.600 228.863 339.600 163.646 C 339.600 89.724,339.204 97.600,342.924 97.600 C 343.901 97.600,345.262 97.488,345.950 97.350 L 347.200 97.100 347.200 91.765 L 347.200 86.430 343.500 86.315 L 339.800 86.200 339.692 78.150 L 339.584 70.099 310.956 41.450 L 282.329 12.800 195.564 12.800 L 108.800 12.800 108.800 149.600 M73.000 300.000 C 72.864 300.220,72.403 300.400,71.976 300.400 C 71.549 300.400,71.200 300.536,71.200 300.702 C 71.200 300.869,70.615 301.264,69.900 301.580 C 69.185 301.897,68.251 302.480,67.825 302.878 C 67.398 303.275,66.895 303.600,66.706 303.600 C 66.268 303.600,64.400 305.457,64.400 305.894 C 64.400 306.075,64.040 306.483,63.600 306.800 C 63.160 307.117,62.800 307.697,62.800 308.088 C 62.800 308.480,62.620 308.800,62.400 308.800 C 62.180 308.800,62.000 309.160,62.000 309.600 C 62.000 310.040,61.820 310.400,61.600 310.400 C 61.380 310.400,61.200 310.940,61.200 311.600 C 61.200 312.260,61.020 312.800,60.800 312.800 C 60.539 312.800,60.400 319.600,60.400 332.400 C 60.400 345.200,60.539 352.000,60.800 352.000 C 61.020 352.000,61.200 352.360,61.200 352.800 C 61.200 353.240,61.380 353.600,61.600 353.600 C 61.820 353.600,62.000 353.960,62.000 354.400 C 62.000 354.840,62.180 355.200,62.400 355.200 C 62.620 355.200,62.800 355.560,62.800 356.000 C 62.800 356.440,62.980 356.800,63.200 356.800 C 63.420 356.800,63.600 357.084,63.600 357.431 C 63.600 358.107,66.718 361.172,67.425 361.189 C 67.658 361.195,68.207 361.515,68.645 361.900 C 69.860 362.969,71.104 363.600,71.995 363.600 C 72.438 363.600,72.800 363.780,72.800 364.000 C 72.800 364.220,73.520 364.400,74.400 364.400 C 75.280 364.400,76.000 364.580,76.000 364.800 C 76.000 365.064,87.733 365.200,110.400 365.200 L 144.800 365.200 144.800 357.800 L 144.800 350.400 118.000 350.400 C 100.400 350.400,91.200 350.263,91.200 350.000 C 91.200 349.780,90.660 349.600,90.000 349.600 C 89.340 349.600,88.800 349.420,88.800 349.200 C 88.800 348.980,88.440 348.800,88.000 348.800 C 87.560 348.800,87.200 348.620,87.200 348.400 C 87.200 348.180,86.925 348.000,86.589 348.000 C 85.845 348.000,82.400 344.627,82.400 343.899 C 82.400 343.612,82.040 343.117,81.600 342.800 C 81.130 342.461,80.800 341.765,80.800 341.112 C 80.800 340.500,80.620 340.000,80.400 340.000 C 80.139 340.000,80.000 333.000,80.000 319.800 L 80.000 299.600 76.624 299.600 C 74.767 299.600,73.136 299.780,73.000 300.000 M339.287 348.300 C 339.239 348.575,338.761 348.800,338.224 348.800 C 337.687 348.800,337.136 348.980,337.000 349.200 C 336.864 349.420,336.144 349.600,335.400 349.600 C 334.656 349.600,333.936 349.780,333.800 350.000 C 333.637 350.264,311.996 350.400,270.176 350.400 L 206.800 350.400 206.800 357.800 L 206.800 365.200 268.776 365.200 C 309.663 365.200,330.837 365.064,331.000 364.800 C 331.136 364.580,331.867 364.400,332.624 364.400 C 333.381 364.400,334.000 364.220,334.000 364.000 C 334.000 363.780,334.276 363.600,334.613 363.600 C 335.299 363.600,338.000 361.058,338.000 360.413 C 338.000 360.186,338.180 360.000,338.400 360.000 C 338.620 360.000,338.800 359.655,338.800 359.233 C 338.800 358.812,338.986 358.405,339.213 358.329 C 339.477 358.241,339.580 356.321,339.500 352.996 C 339.430 350.138,339.335 348.025,339.287 348.300 " stroke="none" fill="#7c2cfc" fill-rule="evenodd"></path><path id="path3" d="M300.800 12.702 C 300.800 12.867,309.530 21.732,320.200 32.400 C 330.870 43.068,339.600 51.636,339.600 51.440 C 339.600 51.244,330.947 42.472,320.372 31.947 L 301.143 12.810 316.072 12.700 L 331.000 12.590 315.900 12.495 C 307.595 12.443,300.800 12.536,300.800 12.702 M332.200 13.200 C 332.336 13.420,332.709 13.600,333.029 13.600 C 333.862 13.600,335.211 14.428,336.450 15.700 C 337.039 16.305,337.662 16.800,337.835 16.800 C 338.470 16.800,335.755 14.304,334.316 13.563 C 332.690 12.727,331.815 12.577,332.200 13.200 M319.789 266.821 C 304.201 282.399,300.397 286.398,301.167 286.399 C 301.698 286.399,302.006 286.273,301.851 286.117 C 301.695 285.962,310.163 277.239,320.667 266.733 C 331.171 256.227,339.678 247.545,339.572 247.439 C 339.466 247.332,330.564 256.055,319.789 266.821 M337.671 281.685 C 336.079 284.261,334.252 285.200,329.600 285.832 L 326.200 286.295 328.800 286.330 C 331.623 286.368,333.691 285.789,335.734 284.389 C 337.033 283.499,339.025 280.892,338.674 280.541 C 338.574 280.440,338.122 280.955,337.671 281.685 M248.400 296.300 L 248.600 299.000 290.000 299.200 C 331.078 299.398,332.246 299.373,337.306 298.168 C 337.914 298.023,338.510 297.746,338.630 297.552 C 338.749 297.359,339.017 297.200,339.224 297.200 C 339.751 297.200,339.728 329.874,339.200 330.200 C 338.980 330.336,338.800 330.808,338.800 331.250 C 338.800 332.293,334.693 336.400,333.650 336.400 C 333.208 336.400,332.736 336.580,332.600 336.800 C 332.437 337.064,310.929 337.200,269.376 337.200 L 206.400 337.200 206.400 326.798 L 206.400 316.395 175.700 316.498 L 145.000 316.600 144.893 326.900 L 144.786 337.200 119.056 337.200 L 93.326 337.200 93.063 330.536 C 92.918 326.871,92.800 318.501,92.800 311.936 L 92.800 300.000 164.700 299.902 L 236.600 299.803 164.600 299.602 L 92.600 299.400 92.496 317.719 C 92.427 329.891,92.532 336.300,92.810 336.819 C 93.218 337.581,93.846 337.600,119.207 337.600 L 145.186 337.600 145.293 327.300 L 145.400 317.000 175.693 316.897 L 205.986 316.795 206.093 327.097 L 206.200 337.400 269.302 337.501 L 332.403 337.602 334.190 336.763 C 335.173 336.301,336.608 335.224,337.379 334.370 C 340.029 331.437,340.000 331.673,340.000 313.351 C 340.000 295.612,340.062 296.138,338.095 297.161 C 335.367 298.579,334.682 298.600,291.400 298.600 L 249.000 298.600 248.881 296.100 C 248.815 294.725,248.635 293.600,248.481 293.600 C 248.326 293.599,248.290 294.814,248.400 296.300 M157.700 329.063 C 156.968 329.361,156.968 379.452,157.700 379.709 C 157.975 379.805,162.112 377.931,166.894 375.543 L 175.588 371.202 184.456 375.619 C 189.343 378.053,193.477 379.883,193.665 379.695 C 193.853 379.507,193.960 368.024,193.903 354.177 L 193.800 329.000 176.000 328.929 C 166.210 328.891,157.975 328.951,157.700 329.063 " stroke="none" fill="#a4e9d3" fill-rule="evenodd"></path><path id="path4" d="M73.418 12.448 C 67.213 13.914,61.179 20.186,60.002 26.391 C 59.401 29.557,59.450 292.283,60.051 292.484 C 60.298 292.566,61.997 291.857,63.826 290.908 C 70.558 287.413,72.051 287.134,85.600 286.839 L 96.600 286.600 96.600 149.400 L 96.600 12.200 85.800 12.137 C 79.860 12.102,74.288 12.242,73.418 12.448 M108.585 12.500 C 108.481 12.775,108.441 74.650,108.498 150.000 L 108.600 287.000 172.360 287.101 L 236.120 287.202 235.860 290.863 C 235.717 292.876,235.600 295.305,235.600 296.261 L 235.600 298.000 164.500 298.006 C 101.068 298.012,91.254 298.130,92.412 298.878 C 92.515 298.945,124.927 298.954,164.439 298.898 L 236.277 298.796 236.542 293.240 C 236.688 290.185,236.696 287.396,236.561 287.042 C 236.336 286.456,230.730 286.400,172.557 286.400 L 108.800 286.400 108.800 149.600 L 108.800 12.800 195.564 12.800 L 282.329 12.800 310.956 41.450 L 339.584 70.099 339.692 78.150 L 339.800 86.200 343.583 86.316 C 348.053 86.453,348.129 85.934,343.686 85.619 L 340.600 85.400 340.494 77.600 L 340.387 69.800 311.495 40.900 L 282.602 12.000 195.688 12.000 C 126.526 12.000,108.736 12.102,108.585 12.500 M95.600 149.600 L 95.600 286.400 84.000 286.400 C 76.533 286.400,72.400 286.543,72.400 286.800 C 72.400 287.020,71.680 287.200,70.800 287.200 C 69.920 287.200,69.200 287.380,69.200 287.600 C 69.200 287.820,68.660 288.000,68.000 288.000 C 67.340 288.000,66.800 288.180,66.800 288.400 C 66.800 288.620,66.440 288.800,66.000 288.800 C 65.560 288.800,65.200 288.980,65.200 289.200 C 65.200 289.420,64.840 289.600,64.400 289.600 C 63.960 289.600,63.600 289.780,63.600 290.000 C 63.600 290.220,63.240 290.400,62.800 290.400 C 62.360 290.400,62.000 290.580,62.000 290.800 C 62.000 291.020,61.745 291.200,61.433 291.200 C 61.122 291.200,60.776 291.425,60.665 291.700 C 60.554 291.975,60.449 232.305,60.432 159.100 C 60.411 70.612,60.534 26.000,60.800 26.000 C 61.020 26.000,61.200 25.676,61.200 25.280 C 61.200 24.386,62.094 22.407,62.500 22.403 C 62.665 22.401,62.800 22.110,62.800 21.755 C 62.800 20.914,68.514 15.200,69.355 15.200 C 69.710 15.200,70.001 15.065,70.003 14.900 C 70.007 14.494,71.986 13.600,72.880 13.600 C 73.276 13.600,73.600 13.420,73.600 13.200 C 73.600 12.943,77.533 12.800,84.600 12.800 L 95.600 12.800 95.600 149.600 M343.200 97.563 C 341.770 97.693,340.375 97.946,340.100 98.124 C 339.703 98.380,339.600 111.928,339.600 163.655 L 339.600 228.863 334.700 233.764 C 332.005 236.459,328.699 239.820,327.354 241.232 C 326.008 242.645,322.498 246.149,319.554 249.019 C 316.609 251.889,312.915 255.579,311.344 257.219 C 309.774 258.859,305.904 262.729,302.744 265.820 C 299.585 268.912,295.720 272.782,294.156 274.420 C 292.592 276.059,289.207 279.423,286.635 281.896 L 281.957 286.391 265.078 286.496 L 248.200 286.600 248.079 289.188 C 247.942 292.093,248.231 293.751,248.812 293.393 C 249.025 293.261,249.200 291.813,249.200 290.176 L 249.200 287.200 265.894 287.200 L 282.588 287.200 311.394 258.402 L 340.200 229.605 340.400 164.102 L 340.600 98.600 343.465 98.483 C 345.369 98.406,346.492 98.171,346.814 97.783 C 347.210 97.306,347.162 97.211,346.549 97.263 C 346.137 97.298,344.630 97.433,343.200 97.563 M74.200 298.775 C 69.466 299.590,63.963 303.769,61.648 308.306 C 59.594 312.331,59.612 312.121,59.606 332.508 L 59.600 351.616 61.366 355.108 C 64.113 360.542,67.286 363.268,72.829 364.959 L 76.256 366.004 110.828 365.902 L 145.400 365.800 145.400 357.800 L 145.400 349.800 118.600 349.600 L 91.800 349.400 89.412 348.438 C 86.547 347.285,83.407 344.310,81.980 341.400 L 81.000 339.400 80.889 319.428 C 80.813 305.698,80.641 299.291,80.340 298.928 C 79.873 298.365,77.000 298.294,74.200 298.775 M80.000 319.800 C 80.000 333.000,80.139 340.000,80.400 340.000 C 80.620 340.000,80.800 340.500,80.800 341.112 C 80.800 341.765,81.130 342.461,81.600 342.800 C 82.040 343.117,82.400 343.612,82.400 343.899 C 82.400 344.627,85.845 348.000,86.589 348.000 C 86.925 348.000,87.200 348.180,87.200 348.400 C 87.200 348.620,87.560 348.800,88.000 348.800 C 88.440 348.800,88.800 348.980,88.800 349.200 C 88.800 349.420,89.340 349.600,90.000 349.600 C 90.660 349.600,91.200 349.780,91.200 350.000 C 91.200 350.263,100.400 350.400,118.000 350.400 L 144.800 350.400 144.800 357.800 L 144.800 365.200 110.400 365.200 C 87.733 365.200,76.000 365.064,76.000 364.800 C 76.000 364.580,75.280 364.400,74.400 364.400 C 73.520 364.400,72.800 364.220,72.800 364.000 C 72.800 363.780,72.438 363.600,71.995 363.600 C 71.104 363.600,69.860 362.969,68.645 361.900 C 68.207 361.515,67.658 361.195,67.425 361.189 C 66.718 361.172,63.600 358.107,63.600 357.431 C 63.600 357.084,63.420 356.800,63.200 356.800 C 62.980 356.800,62.800 356.440,62.800 356.000 C 62.800 355.560,62.620 355.200,62.400 355.200 C 62.180 355.200,62.000 354.840,62.000 354.400 C 62.000 353.960,61.820 353.600,61.600 353.600 C 61.380 353.600,61.200 353.240,61.200 352.800 C 61.200 352.360,61.020 352.000,60.800 352.000 C 60.539 352.000,60.400 345.200,60.400 332.400 C 60.400 319.600,60.539 312.800,60.800 312.800 C 61.020 312.800,61.200 312.260,61.200 311.600 C 61.200 310.940,61.380 310.400,61.600 310.400 C 61.820 310.400,62.000 310.040,62.000 309.600 C 62.000 309.160,62.180 308.800,62.400 308.800 C 62.620 308.800,62.800 308.480,62.800 308.088 C 62.800 307.697,63.160 307.117,63.600 306.800 C 64.040 306.483,64.400 306.075,64.400 305.894 C 64.400 305.457,66.268 303.600,66.706 303.600 C 66.895 303.600,67.398 303.275,67.825 302.878 C 68.251 302.480,69.185 301.897,69.900 301.580 C 70.615 301.264,71.200 300.869,71.200 300.702 C 71.200 300.536,71.549 300.400,71.976 300.400 C 72.403 300.400,72.864 300.220,73.000 300.000 C 73.136 299.780,74.767 299.600,76.624 299.600 L 80.000 299.600 80.000 319.800 M337.800 347.915 C 332.948 349.627,334.059 349.600,268.933 349.600 C 234.796 349.600,206.581 349.709,206.233 349.843 C 205.355 350.179,205.275 364.833,206.147 365.556 C 206.999 366.263,331.642 365.984,333.728 365.270 C 338.370 363.681,340.400 359.904,340.400 352.856 C 340.400 347.082,340.362 347.010,337.800 347.915 M339.213 358.329 C 338.986 358.405,338.800 358.812,338.800 359.233 C 338.800 359.655,338.620 360.000,338.400 360.000 C 338.180 360.000,338.000 360.186,338.000 360.413 C 338.000 361.058,335.299 363.600,334.613 363.600 C 334.276 363.600,334.000 363.780,334.000 364.000 C 334.000 364.220,333.381 364.400,332.624 364.400 C 331.867 364.400,331.136 364.580,331.000 364.800 C 330.837 365.064,309.663 365.200,268.776 365.200 L 206.800 365.200 206.800 357.800 L 206.800 350.400 270.176 350.400 C 311.996 350.400,333.637 350.264,333.800 350.000 C 333.936 349.780,334.656 349.600,335.400 349.600 C 336.144 349.600,336.864 349.420,337.000 349.200 C 337.136 348.980,337.687 348.800,338.224 348.800 C 338.761 348.800,339.239 348.575,339.287 348.300 C 339.335 348.025,339.430 350.138,339.500 352.996 C 339.580 356.321,339.477 358.241,339.213 358.329 " stroke="none" fill="#732bf9" fill-rule="evenodd"></path></g></svg>